<svg width="153" height="303" viewBox="0 0 153 303" fill="none" xmlns="http://www.w3.org/2000/svg">
<path d="M55.4978 190.767C55.0944 190.807 48.3315 213.31 48.3315 213.31C48.3315 213.31 24.8313 233.591 21.2956 241.311C17.7599 249.031 5.52344 272.856 5.52344 272.856L19.682 279.974L59.6425 232.302C59.6425 232.302 64.0641 230.372 65.6777 227.793C67.2913 225.215 85.9506 195.126 85.9506 195.126L79.6228 181.458L55.4978 190.767Z" fill="#FAF7F1"/>
<path d="M105.572 192.682C105.572 192.682 124.627 207.046 126.549 209.814C126.897 210.321 126.549 211.855 126.549 211.855C126.549 211.855 115.886 218.436 112.944 227.509C110.001 236.581 97.5195 267.43 97.5195 267.43C97.5195 267.43 110.674 275.822 111.124 274.912C111.575 274.003 142.7 229.194 145.421 225.563C148.142 221.932 152.176 216.862 152.857 212.314C153.537 207.766 151.955 199.152 144.694 191.44C137.433 183.728 127.474 172.393 127.474 172.393L101.158 177.606L100.241 188.007L105.572 192.65" fill="#FAF7F1"/>
<path d="M60.3827 150.324C60.3827 150.324 62.0912 162.838 66.4258 168.438C70.7604 174.038 82.1189 184.313 87.7191 185.935C93.3192 187.556 104.227 195.126 104.227 195.126L106.299 193.544L103.056 184.313L113.703 188.466L131.896 172.733C131.896 172.733 116.724 158.329 112.849 153.892C109.649 150.371 106.272 147.016 102.732 143.838L63.1828 148.228L60.0742 151.115" fill="#263238"/>
<path d="M60.5801 153.892C60.5801 153.892 61.284 166.12 63.0242 169.205L53.1211 190.981L80.2676 188.561C80.2676 188.561 86.0497 198.646 86.1842 198.915C86.3187 199.184 96.0319 190.158 96.0319 190.158L89.8148 163.969L60.5801 153.892Z" fill="#263238"/>
<path d="M104.225 195.126C104.04 195.039 103.86 194.941 103.687 194.833L102.16 193.939L96.6232 190.53L92.8186 188.157C91.4423 187.319 90.0185 186.354 88.4287 185.499C87.6377 185.064 86.8467 184.637 85.9608 184.242C85.0749 183.846 84.2048 183.546 83.2714 183.174C81.3602 182.416 79.5093 181.515 77.7346 180.477C74.3245 178.478 71.2563 175.946 68.6462 172.978C66.51 170.557 64.7356 167.84 63.3782 164.91C62.4598 162.937 61.7545 160.871 61.2742 158.748C61.1239 157.997 61.0053 157.412 60.9578 157.008C60.9171 156.808 60.8959 156.604 60.8945 156.399C60.9616 156.595 61.0118 156.796 61.0448 157C61.116 157.396 61.2505 157.973 61.4324 158.717C61.9648 160.807 62.7041 162.84 63.6392 164.784C65.0237 167.655 66.805 170.318 68.9309 172.693C71.5426 175.624 74.6021 178.123 77.9956 180.097C79.7406 181.122 81.5596 182.016 83.4375 182.771C84.3472 183.134 85.2726 183.451 86.1427 183.862C87.0128 184.273 87.8354 184.701 88.6264 185.144C90.2084 186.021 91.648 186.994 93.0164 187.841L96.7973 190.253L102.255 193.773L103.726 194.746C103.908 194.851 104.075 194.979 104.225 195.126Z" fill="#455A64"/>
<path d="M115.096 186.789C114.923 186.718 114.757 186.633 114.598 186.536L113.221 185.745C112.027 185.057 110.318 184.028 108.222 182.723C104.038 180.121 98.3507 176.395 92.276 171.926C86.2012 167.457 80.9096 163.226 77.1603 159.99C75.2857 158.408 73.7907 157.08 72.7703 156.146L71.6076 155.071C71.3386 154.825 71.2042 154.691 71.22 154.675C71.3768 154.773 71.525 154.884 71.663 155.007L72.8811 156.028L77.3501 159.769C81.1389 162.933 86.4622 167.157 92.5212 171.594C98.5801 176.032 104.244 179.813 108.38 182.478L113.3 185.642L114.637 186.496C114.801 186.576 114.955 186.674 115.096 186.789Z" fill="white"/>
<path d="M117.401 185.009C117.228 184.945 117.063 184.86 116.911 184.756L115.566 183.965C114.403 183.269 112.734 182.233 110.686 180.92C106.596 178.31 101.028 174.552 95.0715 170.147C89.1154 165.741 83.9028 161.501 80.2089 158.345C78.358 156.763 76.8789 155.474 75.8822 154.556L74.7274 153.504C74.5841 153.387 74.4541 153.255 74.3398 153.109C74.5 153.202 74.6486 153.313 74.7828 153.441L75.9851 154.438L80.3988 158.124C84.1322 161.216 89.3685 165.409 95.3167 169.814C101.265 174.22 106.794 178.001 110.844 180.683L115.653 183.846L116.958 184.709C117.114 184.796 117.262 184.897 117.401 185.009Z" fill="white"/>
<path d="M133.14 214.11C132.168 213.433 131.129 212.857 130.039 212.393C128.904 212.061 127.738 211.843 126.559 211.745C127.768 211.499 129.021 211.59 130.182 212.009C131.342 212.427 132.365 213.157 133.14 214.117V214.11Z" fill="#995037"/>
<path d="M60.3348 231.353C60.2794 231.448 59.7099 231.195 59.0771 230.783C58.4443 230.372 57.9697 229.993 58.033 229.874C58.0963 229.755 58.6579 230.032 59.2986 230.435C59.9393 230.839 60.398 231.258 60.3348 231.353Z" fill="#995037"/>
<path d="M121.353 107.77L136.967 112.753L132.894 123.376C132.894 123.376 115.112 122.814 112.114 122.166C109.117 121.517 109.172 116.629 109.172 116.629L121.353 107.77Z" fill="#FAF7F1"/>
<path d="M135.425 113.56L140.487 107.896L146.246 107.967C146.246 107.967 150.422 109.644 151.245 109.628C151.213 109.936 151.098 110.228 150.911 110.474C150.724 110.719 150.473 110.909 150.185 111.021C150.185 111.021 152.226 111.021 152.677 111.709C153.127 112.397 152.352 113.765 151.704 114.556C151.864 115.21 151.926 115.885 151.886 116.558C151.841 117.242 151.593 117.898 151.174 118.44L150.011 119.065C150.239 119.278 150.4 119.554 150.471 119.858C150.543 120.162 150.523 120.481 150.414 120.773C150.019 121.489 149.44 122.087 148.737 122.506C148.737 122.506 149.797 122.941 149.465 123.819C149.133 124.697 148.84 125.108 148.168 125.401C147.496 125.693 141.263 126.516 139.918 126.192C138.573 125.867 132.934 123.431 132.934 123.431L135.425 113.56Z" fill="#FAF7F1"/>
<path d="M151.772 114.817C151.772 114.881 150.902 114.707 149.502 114.572C148.806 114.509 147.975 114.454 147.05 114.462C146.583 114.462 146.109 114.462 145.595 114.462C145.021 114.538 144.44 114.397 143.965 114.066C143.72 113.87 143.561 113.586 143.522 113.275C143.504 112.974 143.581 112.675 143.744 112.421C143.89 112.193 144.079 111.997 144.302 111.843C144.525 111.69 144.776 111.582 145.041 111.527C145.481 111.43 145.928 111.372 146.378 111.353L147.532 111.266C148.29 111.17 149.056 111.144 149.818 111.187C149.077 111.376 148.32 111.497 147.556 111.551C146.868 111.661 145.974 111.685 145.136 111.899C144.922 111.944 144.719 112.031 144.54 112.156C144.36 112.281 144.208 112.441 144.092 112.626C143.964 112.802 143.906 113.019 143.931 113.234C143.956 113.45 144.062 113.648 144.226 113.789C144.624 114.054 145.105 114.164 145.579 114.098C146.085 114.098 146.583 114.098 147.05 114.098C147.884 114.109 148.717 114.178 149.542 114.303C150.306 114.366 151.058 114.539 151.772 114.817Z" fill="#995037"/>
<path d="M150.051 118.598C150.051 118.654 149.395 118.519 148.343 118.432C146.95 118.384 145.568 118.163 144.23 117.776C143.836 117.675 143.451 117.549 143.075 117.396C142.863 117.298 142.688 117.135 142.576 116.929C142.5 116.741 142.457 116.54 142.45 116.336C142.422 116.142 142.441 115.944 142.505 115.759C142.557 115.591 142.637 115.433 142.743 115.292C142.914 115.033 143.134 114.81 143.391 114.635C143.757 114.384 144.189 114.247 144.633 114.24C144.941 114.24 145.108 114.303 145.1 114.327C144.549 114.372 144.02 114.56 143.565 114.873C143.348 115.036 143.166 115.24 143.027 115.474C142.949 115.597 142.888 115.73 142.845 115.869C142.82 116.013 142.82 116.161 142.845 116.304C142.862 116.459 142.899 116.611 142.956 116.755C143.026 116.882 143.138 116.98 143.272 117.032C143.63 117.168 143.994 117.284 144.364 117.38C145.684 117.767 147.037 118.031 148.406 118.171C148.977 118.207 149.535 118.352 150.051 118.598Z" fill="#995037"/>
<path d="M148.829 122.355C148.024 122.234 147.23 122.044 146.457 121.786L143.902 121.058C143.372 120.938 142.861 120.746 142.383 120.489C142.118 120.31 141.91 120.061 141.782 119.769C141.716 119.609 141.688 119.437 141.697 119.264C141.707 119.092 141.755 118.924 141.837 118.772C142.007 118.506 142.241 118.287 142.517 118.135C142.793 117.983 143.104 117.903 143.419 117.902C143.989 117.902 144.503 117.902 145.001 117.95C145.894 117.998 146.782 118.109 147.659 118.282C148.25 118.404 148.829 118.576 149.391 118.796C149.787 118.954 149.992 119.073 149.976 119.096C149.961 119.12 149.083 118.804 147.603 118.574C146.736 118.439 145.862 118.354 144.985 118.321C144.487 118.321 143.949 118.274 143.443 118.321C143.194 118.318 142.949 118.377 142.729 118.493C142.51 118.609 142.323 118.779 142.185 118.986C142.091 119.198 142.08 119.438 142.157 119.657C142.233 119.876 142.391 120.057 142.597 120.164C143.036 120.409 143.507 120.593 143.997 120.71L146.528 121.501C147.319 121.718 148.089 122.004 148.829 122.355Z" fill="#995037"/>
<path d="M147.146 124.633C146.452 124.714 145.748 124.677 145.066 124.523C144.315 124.402 143.574 124.223 142.851 123.985C142.378 123.87 141.954 123.606 141.641 123.233C141.481 123.005 141.385 122.738 141.361 122.46C141.338 122.183 141.388 121.904 141.507 121.651C141.626 121.405 141.808 121.193 142.034 121.038C142.26 120.883 142.523 120.789 142.796 120.766C143.263 120.734 143.732 120.788 144.18 120.924C144.912 121.111 145.633 121.338 146.34 121.604C147.008 121.809 147.645 122.107 148.23 122.49C147.557 122.321 146.895 122.115 146.245 121.873C145.636 121.691 144.908 121.477 144.093 121.288C143.686 121.179 143.264 121.136 142.843 121.161C142.639 121.183 142.444 121.256 142.275 121.374C142.107 121.491 141.97 121.649 141.878 121.833C141.789 122.015 141.751 122.218 141.768 122.42C141.785 122.622 141.856 122.815 141.973 122.98C142.235 123.288 142.586 123.507 142.978 123.605C143.679 123.852 144.395 124.056 145.122 124.214C146.363 124.507 147.154 124.57 147.146 124.633Z" fill="#995037"/>
<path d="M150.32 111.021C150.36 111.163 148.556 111.614 146.31 111.479C146.033 111.479 145.756 111.44 145.519 111.4C145.392 111.4 145.242 111.337 145.139 111.329H145.005C144.973 111.321 144.941 111.321 144.91 111.329C144.583 111.599 144.234 111.84 143.866 112.049C143.527 112.275 143.133 112.403 142.727 112.421C142.727 112.357 143.122 112.191 143.715 111.796C144.066 111.556 144.399 111.291 144.712 111.005C144.79 110.958 144.876 110.926 144.965 110.91H145.202L145.574 110.965C145.827 111.005 146.096 111.021 146.365 111.036C147.457 111.092 148.461 111.036 149.173 111.036C149.554 110.996 149.938 110.991 150.32 111.021Z" fill="#995037"/>
<path d="M141.989 116.178C141.934 116.178 142.084 115.877 142.187 115.387C142.305 114.767 142.389 114.141 142.44 113.512C142.494 112.9 142.41 112.284 142.195 111.709C142.021 111.266 141.815 111.036 141.862 110.997C141.91 110.957 142.187 111.123 142.456 111.574C142.778 112.175 142.916 112.857 142.851 113.536C142.808 114.196 142.677 114.848 142.464 115.474C142.282 116.028 142.029 116.217 141.989 116.178Z" fill="#995037"/>
<path d="M133.13 111.535L130.496 123.289L132.901 123.376L136.326 112.547L133.13 111.535Z" fill="#263238"/>
<path d="M136.791 111.382L132.059 109.477L131.462 110.959L136.195 112.864L136.791 111.382Z" fill="#263238"/>
<path d="M117.752 9.03122C117.071 8.83845 116.452 8.4699 115.959 7.96259C115.465 7.45528 115.114 6.82705 114.94 6.141C114.766 5.45494 114.776 4.7352 114.968 4.05405C115.16 3.3729 115.528 2.75431 116.035 2.2604C116.995 1.46649 118.123 0.901193 119.334 0.607248C120.106 0.255698 120.981 0.196673 121.794 0.441142C122.216 0.696248 122.56 1.06154 122.79 1.49775C123.02 1.93396 123.127 2.4246 123.099 2.91692C123.099 3.90565 122.877 4.89438 122.988 5.8831C123.296 5.57462 123.882 5.83565 123.993 6.25487C124.031 6.4698 124.008 6.6911 123.927 6.89376C123.846 7.09643 123.71 7.2724 123.534 7.40179C123.181 7.6543 122.811 7.88161 122.426 8.08204C122.236 8.18518 122.069 8.32497 121.933 8.49332C121.797 8.66166 121.696 8.85523 121.635 9.06285" fill="#263238"/>
<path d="M119.415 10.3206C119.024 10.5228 118.596 10.6413 118.157 10.6686C117.937 10.6813 117.719 10.6257 117.532 10.5096C117.345 10.3935 117.199 10.2225 117.113 10.02C117.065 9.82662 117.073 9.62356 117.136 9.43452C117.199 9.24548 117.314 9.07822 117.469 8.95221C117.783 8.70399 118.148 8.52599 118.537 8.43016C119.346 8.17966 120.174 7.99191 121.012 7.86857C121.353 7.78925 121.708 7.78925 122.049 7.86857C122.222 7.91657 122.375 8.01967 122.485 8.16234C122.595 8.305 122.656 8.4795 122.658 8.65955C122.658 9.08668 122.207 9.36352 121.811 9.54545C120.822 9.99007 119.776 10.2936 118.703 10.4472" fill="#455A64"/>
<path d="M110.475 39.5475C109.513 36.1016 108.848 32.5793 108.49 29.0195C108.14 25.4411 108.683 21.8318 110.072 18.5152C110.301 18.0169 112.152 14.7264 112.682 14.8213C113.062 14.8846 111.852 17.9853 112.018 18.3412C113.547 21.7417 114.002 25.5275 113.323 29.1935C112.75 32.7469 111.781 36.225 110.436 39.5633" fill="#263238"/>
<path d="M117.92 72.5236C112.383 72.0174 108.357 64.7799 108.745 59.243L111.117 25.9268C111.466 16.9491 116.971 9.67208 125.933 10.2653L126.724 10.3681C130.722 10.8689 134.385 12.8552 136.986 15.9326C139.587 19.0099 140.936 22.9531 140.764 26.9788C140.423 34.7542 139.973 43.3363 139.379 47.4574C138.201 55.9921 129.484 56.2531 129.484 56.2531C129.484 56.2531 129.294 58.2385 129.089 60.7617C128.98 62.1038 128.607 63.4112 127.99 64.6083C127.374 65.8054 126.526 66.8685 125.497 67.7363C124.467 68.6041 123.276 69.2593 121.992 69.6642C120.708 70.0691 119.356 70.2156 118.015 70.0953L117.92 72.5236Z" fill="#FAF7F1"/>
<path d="M129.491 56.2529C125.544 55.7496 121.824 54.1244 118.773 51.5703C118.773 51.5703 120.711 58.1276 129.341 58.4281L129.491 56.2529Z" fill="#995037"/>
<path d="M135.97 32.405C135.934 32.7235 135.775 33.0152 135.527 33.2178C135.279 33.4203 134.961 33.5175 134.642 33.4886C134.485 33.4816 134.331 33.4433 134.189 33.3759C134.047 33.3086 133.92 33.2135 133.815 33.0963C133.711 32.9791 133.63 32.8422 133.579 32.6936C133.528 32.545 133.508 32.3877 133.518 32.231C133.554 31.9125 133.713 31.6208 133.962 31.4182C134.21 31.2157 134.528 31.1184 134.847 31.1473C135.004 31.1543 135.158 31.1927 135.3 31.26C135.442 31.3274 135.569 31.4225 135.674 31.5397C135.778 31.6568 135.858 31.7938 135.909 31.9424C135.96 32.091 135.981 32.2483 135.97 32.405Z" fill="#263238"/>
<path d="M138.501 30.2928C138.335 30.4351 137.497 29.6362 136.176 29.5018C134.855 29.3673 133.803 29.8735 133.7 29.6995C133.597 29.5255 133.827 29.3515 134.285 29.0984C134.901 28.7724 135.604 28.6479 136.294 28.7424C136.979 28.8214 137.619 29.1181 138.122 29.5888C138.485 29.9289 138.588 30.2374 138.501 30.2928Z" fill="#263238"/>
<path d="M122.92 31.2895C122.882 31.6086 122.722 31.9004 122.472 32.1028C122.222 32.3052 121.903 32.4022 121.583 32.3732C121.427 32.3662 121.273 32.3278 121.132 32.2604C120.99 32.1929 120.864 32.0977 120.76 31.9804C120.656 31.8631 120.576 31.7261 120.526 31.5775C120.476 31.4289 120.456 31.2718 120.468 31.1155C120.504 30.797 120.663 30.5053 120.912 30.3027C121.16 30.1002 121.478 30.003 121.797 30.0319C121.954 30.0389 122.108 30.0772 122.25 30.1446C122.392 30.2119 122.519 30.307 122.623 30.4242C122.728 30.5414 122.808 30.6783 122.859 30.8269C122.91 30.9755 122.931 31.1328 122.92 31.2895Z" fill="#263238"/>
<path d="M125.568 29.2172C125.402 29.3595 124.555 28.5606 123.242 28.4262C121.929 28.2917 120.869 28.8059 120.766 28.6239C120.664 28.442 120.893 28.2759 121.352 28.0228C121.969 27.7008 122.671 27.5766 123.361 27.6668C124.044 27.7533 124.683 28.0521 125.188 28.5211C125.552 28.8533 125.655 29.1539 125.568 29.2172Z" fill="#263238"/>
<path d="M129.059 39.9032C129.778 39.7683 130.512 39.7284 131.242 39.7845C131.582 39.7845 131.906 39.7845 132.033 39.5393C132.106 39.1968 132.07 38.84 131.93 38.5189L131.258 35.8375C130.34 32.0329 129.715 28.9164 129.865 28.8848C130.016 28.8531 130.894 31.9063 131.819 35.711C132.041 36.6522 132.246 37.546 132.444 38.4003C132.603 38.8318 132.603 39.3056 132.444 39.7371C132.383 39.8507 132.296 39.9485 132.19 40.0226C132.084 40.0968 131.963 40.1452 131.835 40.1642C131.643 40.1837 131.45 40.1837 131.258 40.1642C130.517 40.1693 129.778 40.0816 129.059 39.9032Z" fill="#263238"/>
<path d="M125.039 40.3226C125.253 40.3226 125.079 41.7701 126.17 42.9328C127.262 44.0956 128.804 44.1272 128.788 44.3329C128.788 44.4199 128.417 44.5622 127.776 44.499C126.938 44.4075 126.16 44.0238 125.577 43.4153C125.025 42.8258 124.719 42.0476 124.723 41.2401C124.739 40.639 124.944 40.3067 125.039 40.3226Z" fill="#263238"/>
<path d="M126.164 23.878C125.99 24.2182 124.701 23.878 123.135 23.878C121.569 23.878 120.272 24.1391 120.113 23.791C120.042 23.6249 120.295 23.3164 120.841 23C121.566 22.6596 122.358 22.489 123.159 22.5014C123.959 22.5137 124.747 22.7086 125.46 23.0712C125.998 23.3955 126.243 23.7119 126.164 23.878Z" fill="#263238"/>
<path d="M138.55 25.8555C138.281 26.1245 137.411 25.6973 136.327 25.5471C135.244 25.3968 134.295 25.4996 134.12 25.1595C134.049 24.9934 134.231 24.7165 134.666 24.4871C135.245 24.2053 135.898 24.1113 136.533 24.2182C137.167 24.3039 137.76 24.5797 138.234 25.0092C138.55 25.4047 138.629 25.729 138.55 25.8555Z" fill="#263238"/>
<path d="M110.998 32.3178C110.864 32.2387 105.343 29.842 104.797 35.7111C104.251 41.5802 110.255 40.9158 110.278 40.7497C110.302 40.5836 110.998 32.3178 110.998 32.3178Z" fill="#FAF7F1"/>
<path d="M108.698 38.3609C108.698 38.3609 108.588 38.4242 108.406 38.4875C108.145 38.5738 107.861 38.5539 107.615 38.4321C107.259 38.1565 106.983 37.792 106.813 37.3753C106.644 36.9587 106.588 36.5046 106.65 36.0592C106.685 35.5538 106.831 35.0623 107.077 34.6196C107.148 34.4413 107.261 34.2832 107.407 34.159C107.554 34.0349 107.728 33.9486 107.915 33.9077C108.036 33.8892 108.159 33.9129 108.265 33.9749C108.37 34.0369 108.45 34.1333 108.493 34.2478C108.556 34.4139 108.493 34.5326 108.54 34.5405C108.588 34.5484 108.675 34.4535 108.651 34.2083C108.63 34.0607 108.56 33.9244 108.453 33.8207C108.302 33.6832 108.104 33.6095 107.9 33.615C107.657 33.6398 107.425 33.7252 107.225 33.8635C107.024 34.0017 106.862 34.1883 106.753 34.406C106.456 34.8835 106.282 35.427 106.246 35.988C106.167 37.1665 106.674 38.3609 107.496 38.6536C107.649 38.7148 107.814 38.7409 107.978 38.7299C108.142 38.719 108.302 38.6713 108.445 38.5903C108.675 38.5112 108.714 38.3688 108.698 38.3609Z" fill="#995037"/>
<path d="M137.759 16.9331C138.755 16.4822 136.177 13.168 133.915 11.9103C130.521 10.0199 125.214 8.58031 121.884 9.22891C117.874 10.0199 114.449 11.6889 112.186 15.0901C110 18.5597 108.774 22.5477 108.635 26.6464C108.481 27.89 108.664 29.152 109.165 30.3007C109.869 31.6691 111.38 32.6183 111.158 34.4059C111.109 34.7282 111.124 35.0571 111.202 35.3735C111.281 35.6899 111.422 35.9874 111.617 36.2489C112.598 37.4828 113.99 36.5178 114.694 35.4579C116.181 33.2669 116.553 30.538 116.885 27.9119C117.223 26.0579 117.258 24.1612 116.988 22.296C116.782 21.2914 116.394 20.3264 116.244 19.314C116.138 18.8121 116.142 18.2931 116.257 17.7931C116.372 17.2931 116.594 16.8242 116.909 16.4189C117.066 16.2554 117.238 16.1071 117.423 15.976C118.302 15.3297 119.338 14.9291 120.424 14.8151C121.509 14.7011 122.606 14.8779 123.6 15.3274C126.764 16.7749 132.301 18.9976 133.883 18.0009C134.996 17.3929 135.969 16.5575 136.738 15.5489L137.759 16.9331Z" fill="#263238"/>
<path d="M130.812 10.3206C130.812 10.3206 131.224 10.6211 131.754 11.246C132.469 12.0542 133.034 12.9837 133.423 13.9907C133.811 15.0203 133.872 16.1446 133.597 17.21C133.359 18.001 132.988 18.4123 132.956 18.3807C132.924 18.349 133.162 17.914 133.312 17.1388C133.486 16.13 133.39 15.0932 133.035 14.1331C132.651 13.1673 132.143 12.2554 131.524 11.42C131.237 11.0882 130.998 10.7182 130.812 10.3206Z" fill="#455A64"/>
<path d="M134.649 13.4688C134.696 13.4688 134.854 13.7456 134.949 14.2597C135.05 14.9432 134.996 15.6407 134.791 16.3005C134.582 16.9621 134.222 17.566 133.739 18.0644C133.367 18.4361 133.075 18.5785 133.043 18.539C133.605 17.8169 134.061 17.0178 134.396 16.166C134.61 15.2838 134.695 14.3753 134.649 13.4688Z" fill="#455A64"/>
<path d="M116.789 7.80512C116.789 7.80512 116.591 7.7102 116.354 7.42544C115.945 6.89925 115.712 6.25727 115.689 5.5911C115.667 4.92492 115.855 4.26859 116.227 3.71574C116.507 3.30846 116.875 2.96914 117.303 2.72275C117.732 2.47635 118.21 2.32915 118.703 2.29196C118.848 2.27996 118.994 2.29994 119.131 2.35051C119.268 2.40107 119.392 2.48099 119.494 2.58463C119.657 2.81388 119.728 3.09644 119.692 3.37561C119.657 3.82697 119.596 4.27594 119.51 4.72028C119.368 5.47402 119.148 6.21095 118.853 6.91922C118.617 7.58503 118.261 8.20172 117.801 8.73848C117.746 8.69893 118.149 8.01077 118.592 6.80848C118.838 6.1057 119.023 5.3833 119.146 4.6491C119.218 4.2169 119.268 3.78129 119.296 3.34397C119.323 3.1633 119.287 2.97884 119.193 2.82192C119.125 2.76189 119.044 2.71739 118.957 2.69145C118.869 2.66551 118.777 2.65876 118.687 2.67164C118.255 2.70593 117.836 2.83412 117.459 3.04726C117.082 3.26039 116.756 3.55333 116.504 3.90557C116.08 4.48713 115.893 5.20833 115.982 5.92258C116.091 6.60706 116.369 7.2538 116.789 7.80512Z" fill="#455A64"/>
<path d="M92.3247 57.1784C93.0445 56.8778 100.235 54.1568 102.845 53.5003C105.455 52.8438 109.315 52.3455 109.315 52.3455C109.315 52.3455 119.218 58.5151 121.18 59.6146C123.141 60.7141 129.09 61.0542 129.09 61.0542C129.09 61.0542 129.09 71.9144 128.457 75.8693C126.682 86.4742 124.263 96.961 121.211 107.271C116.821 121.992 113.966 126.381 113.966 126.381C113.966 126.381 114.575 132.709 112.732 136.664C110.889 140.619 108.69 144.574 108.69 144.574L106.278 146.33C106.278 146.33 98.3678 143.032 91.1224 146.33C83.877 149.628 66.072 156.471 62.117 155.577C58.1621 154.683 59.9181 150.744 60.7961 147.01C61.6741 143.277 69.3624 130.321 69.3624 130.321L70.2405 125.709L71.9331 124.016L78.3876 84.5622C78.3876 84.5622 90.4659 57.9377 92.3247 57.1784Z" fill="#FF0000"/>
<path d="M87.0898 82.3714C87.0898 82.3714 90.2538 93.5954 97.8788 94.8293C104.563 95.913 107.948 94.0384 109.562 89.7591C111.175 85.4799 112.52 66.5359 112.52 66.5359C112.52 66.5359 112.702 59.5515 110.558 58.1356C108.415 56.7198 87.0898 82.3714 87.0898 82.3714Z" fill="#FAF7F1"/>
<path d="M75.2734 127.402C75.2734 127.402 76.0644 132.662 77.2746 133.888C77.2746 133.888 86.45 144.463 86.893 144.906C87.3359 145.349 88.8309 146.124 89.6061 145.697C89.8592 145.495 90.0684 145.244 90.2208 144.958C90.3731 144.673 90.4654 144.359 90.4919 144.036C90.4919 144.036 92.8649 145.618 93.9248 145.033C94.2084 144.892 94.4349 144.658 94.566 144.37C94.6971 144.082 94.7249 143.757 94.6446 143.451C94.6446 143.451 96.4718 144.392 97.6345 143.285C97.9833 142.897 98.2467 142.441 98.4075 141.944C98.5683 141.448 98.623 140.924 98.5679 140.406C98.5679 140.406 100.15 141.624 101.059 140.627C101.692 139.809 102.094 138.837 102.222 137.811L100.893 135.438C100.893 135.438 97.1362 130.234 95.9735 128.794C94.8107 127.354 92.0185 126.192 89.9936 125.527C87.9687 124.863 83.2307 119.587 83.2307 119.587L75.2734 127.402Z" fill="#FAF7F1"/>
<path d="M107.257 56.2136C103.038 54.5772 98.3485 54.6481 94.1817 56.4114C87.569 59.1244 76.3766 63.72 74.7709 64.3212C72.4692 65.2071 48.0199 73.1802 45.0062 83.0991C45.0062 83.0991 43.4717 86.1523 45.0062 88.5886C47.2131 92.1005 53.707 107.374 63.9898 116.051L75.2692 127.402L83.3452 119.761C83.3452 119.761 73.7506 102.415 70.9188 95.6837C68.0871 88.9524 66.5842 87.3704 66.5842 87.3704C66.5842 87.3704 76.5111 85.0608 82.8864 83.4709C89.2617 81.881 97.2348 79.3973 97.2348 79.3973C97.2348 79.3973 108.396 75.3238 110.523 72.1282C112.651 68.9326 114.067 61.3234 110.523 58.1357C109.553 57.312 108.448 56.6618 107.257 56.2136Z" fill="#FAF7F1"/>
<path d="M59.6406 70.5935C59.6406 70.5935 67.938 82.2605 68.6974 84.8312L69.4488 87.4256C69.6209 87.7043 69.8858 87.9134 70.1968 88.0162C70.5079 88.1189 70.8452 88.1086 71.1494 87.9872C72.1856 87.5205 77.7541 85.5351 77.7541 85.5351C77.7541 85.5351 78.9564 81.5011 76.3304 76.5812C74.3182 72.9869 72.0888 69.5186 69.6545 66.1956C67.7418 65.9292 65.7927 66.1994 64.0245 66.9759C62.2564 67.7525 60.7387 69.0048 59.6406 70.5935Z" fill="#263238"/>
<path d="M57.8125 86.0652C59.3684 85.6488 60.992 85.5491 62.5871 85.7719C64.1823 85.9948 65.7165 86.5356 67.0987 87.3624C65.6076 86.8587 64.0823 86.4621 62.5347 86.1759C60.9649 86.0329 59.3873 85.9959 57.8125 86.0652Z" fill="#995037"/>
<path d="M99.3409 81.4931C98.7669 81.1919 98.1587 80.9609 97.5295 80.8049C96.8412 80.6746 96.1369 80.6506 95.4413 80.7337C94.5813 80.8355 93.7281 80.9887 92.8864 81.1925C91.0593 81.6038 89.4061 81.9439 88.2038 82.1733C87.562 82.3383 86.9044 82.4337 86.2422 82.4581C86.8566 82.204 87.4953 82.0131 88.1485 81.8886C89.327 81.588 90.9723 81.2004 92.7915 80.797C93.6518 80.5836 94.5271 80.4355 95.4097 80.3541C96.1416 80.2903 96.879 80.3465 97.5928 80.5202C98.268 80.6395 98.8836 80.9822 99.3409 81.4931Z" fill="#995037"/>
<path d="M107.115 59.1797C107.499 59.7029 107.813 60.2747 108.048 60.8803C108.759 62.3039 109.094 63.8861 109.021 65.4759C108.924 66.3466 108.703 67.1989 108.364 68.0071C108.113 68.669 107.798 69.3048 107.423 69.9054C106.766 70.9416 106.086 71.345 106.062 71.2975C106.472 70.8118 106.845 70.2962 107.178 69.7551C107.503 69.1503 107.781 68.5209 108.008 67.8726C108.314 67.0929 108.516 66.2765 108.609 65.4443C108.683 63.9193 108.413 62.3973 107.818 60.991C107.535 60.4074 107.299 59.8016 107.115 59.1797Z" fill="#995037"/>
<path d="M55.1007 75.6874L60.5822 84.2854C60.7175 84.4952 60.9246 84.6487 61.1647 84.7171C61.4049 84.7855 61.6618 84.7642 61.8873 84.6571L81.2585 75.2207C81.3879 75.1582 81.5027 75.0691 81.5952 74.9592C81.6878 74.8493 81.7561 74.721 81.7957 74.5829C81.8353 74.4447 81.8452 74.2998 81.8249 74.1575C81.8046 74.0153 81.7544 73.8789 81.6777 73.7574L76.1883 65.1594C76.0556 64.9488 75.8494 64.795 75.6098 64.7278C75.3701 64.6605 75.114 64.6847 74.8911 64.7955L55.4962 74.232C55.3699 74.2967 55.2585 74.3872 55.1691 74.4974C55.0797 74.6077 55.0143 74.7354 54.9771 74.8724C54.9399 75.0093 54.9317 75.1526 54.9529 75.2929C54.9742 75.4332 55.0245 75.5676 55.1007 75.6874Z" fill="#263238"/>
<path d="M61.869 82.7113L57.2812 75.4501L74.8965 66.3933L79.6977 73.9235L61.869 82.7113Z" fill="#455A64"/>
<path d="M73.3238 68.5686C72.9227 69.1755 72.4673 69.7447 71.9633 70.2692C71.0062 71.4003 69.8593 72.7608 68.5779 74.2637L65.2637 78.3135C64.8342 78.9017 64.3553 79.4521 63.832 79.9588C64.1695 79.3121 64.5695 78.7001 65.0264 78.1316C65.8174 77.0479 66.9485 75.5767 68.2615 74.0027C69.5746 72.4286 70.8243 71.0444 71.7498 70.0477C72.2214 69.5011 72.7489 69.0053 73.3238 68.5686Z" fill="white"/>
<path d="M67.5516 71.8827C67.6465 71.946 67.251 72.6737 66.6736 73.4647C66.0962 74.2557 65.5504 74.8806 65.4555 74.8094C65.3606 74.7382 65.7561 74.0184 66.3335 73.2274C66.9109 72.4364 67.4646 71.8115 67.5516 71.8827Z" fill="white"/>
<path d="M114.947 271.677L114.496 272.792C114.496 272.792 130.19 288.145 128.908 291.776L91.6133 276.107L98.6847 264.503C103.154 269.423 107.48 271.559 114.947 271.677Z" fill="#FF0000"/>
<path d="M91.6133 276.13L93.3139 273.346L128.267 289.253C128.267 289.253 129.628 290.677 128.948 291.768L91.6133 276.13Z" fill="#E0E0E0"/>
<path d="M114.584 272.951C114.497 273.125 113.556 272.824 112.409 273.038C111.262 273.251 110.471 273.829 110.336 273.67C110.202 273.512 110.914 272.587 112.298 272.357C113.682 272.128 114.695 272.8 114.584 272.951Z" fill="#E0E0E0"/>
<path d="M117.811 276.21C117.811 276.407 116.862 276.384 115.921 276.89C114.979 277.396 114.457 278.14 114.283 278.061C114.109 277.981 114.418 276.898 115.604 276.281C116.791 275.664 117.882 276.036 117.811 276.21Z" fill="#E0E0E0"/>
<path d="M118.072 281.825C117.89 281.825 118.016 280.781 118.902 279.974C119.788 279.168 120.808 279.136 120.824 279.318C120.84 279.5 120.081 279.816 119.369 280.489C118.657 281.161 118.253 281.881 118.072 281.825Z" fill="#E0E0E0"/>
<path d="M114.818 272.951C114.871 272.878 114.914 272.798 114.945 272.713C115.049 272.481 115.133 272.24 115.198 271.994C115.441 271.072 115.455 270.106 115.238 269.178C115.167 268.87 115.072 268.568 114.953 268.276C114.832 267.943 114.655 267.633 114.431 267.358C114.303 267.207 114.144 267.086 113.964 267.003C113.862 266.959 113.751 266.937 113.64 266.937C113.529 266.937 113.418 266.959 113.316 267.003C113.122 267.107 112.96 267.261 112.846 267.448C112.732 267.636 112.67 267.851 112.667 268.07C112.627 268.917 112.762 269.762 113.062 270.554C113.346 271.433 113.9 272.199 114.644 272.745C115.051 273.002 115.524 273.137 116.005 273.133C116.45 273.132 116.893 273.082 117.326 272.982C118.152 272.838 118.951 272.571 119.699 272.191C119.886 272.085 120.046 271.935 120.164 271.755C120.282 271.575 120.356 271.369 120.379 271.155C120.399 270.935 120.337 270.716 120.205 270.538C120.074 270.374 119.894 270.255 119.691 270.198C119.337 270.105 118.962 270.13 118.623 270.269C118.327 270.375 118.036 270.497 117.753 270.633C116.888 271.04 116.088 271.573 115.38 272.215C115.189 272.384 115.006 272.564 114.834 272.753C114.724 272.887 114.668 272.959 114.676 272.967C114.684 272.974 114.953 272.729 115.467 272.318C116.194 271.74 116.991 271.256 117.84 270.878C118.368 270.569 118.979 270.434 119.588 270.491C119.73 270.528 119.854 270.614 119.939 270.734C120.023 270.855 120.061 271.001 120.047 271.147C120.027 271.312 119.967 271.47 119.874 271.608C119.78 271.746 119.655 271.859 119.509 271.938C118.797 272.294 118.038 272.547 117.255 272.69C116.859 272.819 116.441 272.869 116.026 272.836C115.61 272.804 115.205 272.689 114.834 272.5C114.158 271.991 113.656 271.287 113.395 270.483C113.111 269.744 112.98 268.956 113.007 268.165C113.005 268.007 113.044 267.851 113.121 267.713C113.197 267.574 113.308 267.457 113.442 267.374C113.588 267.33 113.744 267.334 113.887 267.387C114.03 267.44 114.152 267.538 114.233 267.667C114.438 267.901 114.601 268.169 114.716 268.458C114.839 268.734 114.94 269.02 115.016 269.312C115.243 270.205 115.267 271.137 115.087 272.041C114.961 272.642 114.818 272.935 114.818 272.951Z" fill="#E0E0E0"/>
<path d="M100.21 270.997C100.131 271.092 101.579 272.334 103.137 274.05C103.532 274.477 103.849 274.912 104.189 275.316C104.483 275.688 104.883 275.964 105.336 276.107C105.652 276.204 105.994 276.179 106.293 276.036C106.498 275.917 106.562 275.798 106.546 275.79C106.372 275.878 106.182 275.929 105.988 275.941C105.793 275.954 105.598 275.926 105.415 275.862C105.022 275.696 104.684 275.422 104.442 275.071C104.141 274.683 103.801 274.216 103.406 273.781C102.734 273.034 102.007 272.339 101.231 271.701C100.925 271.42 100.582 271.183 100.21 270.997Z" fill="#E0E0E0"/>
<path d="M23.7058 279.682L22.986 280.647C22.986 280.647 34.2733 299.472 32.1139 302.684L0 278.076L8.62963 267.722C11.7066 273.592 16.5157 277.673 23.7058 279.682Z" fill="#FF0000"/>
<path d="M0 278.076L2.08029 275.585L32.0902 300.105C32.0902 300.105 33.0473 301.822 32.0902 302.708L0 278.076Z" fill="#E0E0E0"/>
<path d="M23.0633 280.821C22.9447 280.971 22.1063 280.441 20.9435 280.354C19.7808 280.267 18.8711 280.615 18.7762 280.441C18.6813 280.267 19.6067 279.54 21.0068 279.65C22.4068 279.761 23.1741 280.702 23.0633 280.821Z" fill="#E0E0E0"/>
<path d="M25.3289 284.792C25.2498 284.974 24.3639 284.72 23.3277 284.974C22.2915 285.227 21.5954 285.812 21.4452 285.685C21.2949 285.559 21.8723 284.594 23.1695 284.301C24.4667 284.009 25.4396 284.641 25.3289 284.792Z" fill="#E0E0E0"/>
<path d="M24.1503 290.289C23.9842 290.218 24.3717 289.261 25.4317 288.707C26.4916 288.153 27.4882 288.375 27.4487 288.557C27.4091 288.739 26.6102 288.849 25.7481 289.348C24.8859 289.846 24.3243 290.392 24.1503 290.289Z" fill="#E0E0E0"/>
<path d="M23.2777 280.884C23.2777 280.884 23.3489 280.829 23.4676 280.694C23.6275 280.493 23.7703 280.279 23.8947 280.054C24.3595 279.223 24.6173 278.292 24.6461 277.341C24.6495 277.026 24.6336 276.712 24.5987 276.399C24.5651 276.049 24.4714 275.706 24.3218 275.387C24.2419 275.205 24.1199 275.045 23.9659 274.92C23.8797 274.848 23.78 274.795 23.6727 274.762C23.5654 274.729 23.4526 274.719 23.341 274.73C23.1267 274.78 22.93 274.887 22.7724 275.04C22.6149 275.194 22.5024 275.388 22.4472 275.601C22.1914 276.407 22.1052 277.258 22.1941 278.1C22.2431 279.022 22.5807 279.904 23.1591 280.623C23.4919 280.97 23.9131 281.219 24.3772 281.343C24.8066 281.453 25.2471 281.514 25.6902 281.525C26.5282 281.586 27.3706 281.522 28.1897 281.335C28.398 281.278 28.5897 281.172 28.7492 281.026C28.9087 280.88 29.0314 280.699 29.1073 280.497C29.1865 280.29 29.1865 280.062 29.1073 279.856C29.0241 279.665 28.8831 279.504 28.7039 279.397C28.3808 279.22 28.0093 279.15 27.644 279.2C27.3305 279.227 27.0189 279.271 26.7106 279.334C25.7841 279.506 24.8883 279.815 24.0529 280.252C23.8248 280.366 23.6031 280.493 23.3885 280.631C23.2461 280.734 23.1749 280.789 23.1828 280.797C23.5009 280.674 23.8125 280.534 24.1162 280.378C24.9582 279.999 25.8465 279.733 26.7581 279.587C27.3463 279.42 27.9726 279.445 28.5457 279.658C28.673 279.729 28.771 279.842 28.8218 279.979C28.8726 280.115 28.8728 280.265 28.8225 280.402C28.7602 280.555 28.6625 280.692 28.5375 280.8C28.4124 280.909 28.2634 280.987 28.1027 281.027C27.3229 281.189 26.5243 281.243 25.7298 281.185C24.8911 281.231 24.0677 280.947 23.4359 280.394C22.9115 279.73 22.6049 278.921 22.5579 278.076C22.4659 277.279 22.5386 276.471 22.7715 275.703C22.8902 275.371 23.1116 275.063 23.3964 275.031C23.5451 275.029 23.6908 275.074 23.8128 275.159C23.9348 275.244 24.027 275.365 24.0766 275.506C24.2122 275.796 24.3003 276.105 24.3376 276.423C24.3818 276.722 24.4029 277.023 24.4009 277.325C24.4005 278.244 24.1894 279.15 23.784 279.975C23.4834 280.552 23.254 280.868 23.2777 280.884Z" fill="#E0E0E0"/>
<path d="M9.61715 275.292C9.50641 275.363 10.598 276.929 11.6737 278.986C11.9426 279.5 12.1404 280.006 12.3698 280.473C12.5536 280.917 12.8681 281.295 13.2715 281.557C13.5524 281.73 13.8893 281.79 14.2128 281.723C14.4421 281.667 14.5292 281.564 14.5212 281.549C14.3312 281.593 14.1341 281.597 13.9422 281.562C13.7504 281.526 13.5678 281.452 13.406 281.343C13.0731 281.077 12.8165 280.728 12.6624 280.331C12.4726 279.88 12.2669 279.342 11.9901 278.82C11.5311 277.925 11.0021 277.068 10.4081 276.257C10.1913 275.9 9.92502 275.575 9.61715 275.292Z" fill="#E0E0E0"/>
</svg>
