<svg width="24" height="25" viewBox="0 0 24 25" fill="none" xmlns="http://www.w3.org/2000/svg">
<mask id="mask0_174_1899" style="mask-type:alpha" maskUnits="userSpaceOnUse" x="0" y="0" width="24" height="25">
<rect y="0.5" width="24" height="24" fill="#D9D9D9"/>
</mask>
<g mask="url(#mask0_174_1899)">
<path d="M13 23.5V17.5L10.9 15.5L9.9 19.9L3 18.5L3.4 16.5L8.2 17.5L9.8 9.4L8 10.1V13.5H6V8.8L9.95 7.1C10.5333 6.85 10.9625 6.6875 11.2375 6.6125C11.5125 6.5375 11.7667 6.5 12 6.5C12.35 6.5 12.675 6.59167 12.975 6.775C13.275 6.95833 13.5167 7.2 13.7 7.5L14.7 9.1C15.1333 9.8 15.7208 10.375 16.4625 10.825C17.2042 11.275 18.05 11.5 19 11.5V13.5C17.9 13.5 16.8708 13.2708 15.9125 12.8125C14.9542 12.3542 14.15 11.75 13.5 11L12.9 14L15 16V23.5H13ZM13.5 6C12.95 6 12.4792 5.80417 12.0875 5.4125C11.6958 5.02083 11.5 4.55 11.5 4C11.5 3.45 11.6958 2.97917 12.0875 2.5875C12.4792 2.19583 12.95 2 13.5 2C14.05 2 14.5208 2.19583 14.9125 2.5875C15.3042 2.97917 15.5 3.45 15.5 4C15.5 4.55 15.3042 5.02083 14.9125 5.4125C14.5208 5.80417 14.05 6 13.5 6Z" fill="#E71212" fill-opacity="0.5"/>
</g>
</svg>
