<svg width="24" height="25" viewBox="0 0 24 25" fill="none" xmlns="http://www.w3.org/2000/svg">
<mask id="mask0_174_1894" style="mask-type:alpha" maskUnits="userSpaceOnUse" x="0" y="0" width="24" height="25">
<rect y="0.5" width="24" height="24" fill="#D9D9D9"/>
</mask>
<g mask="url(#mask0_174_1894)">
<path d="M20.6484 9.87507L19.2484 8.47507L19.9984 7.70007L16.7984 4.50007L16.0234 5.25007L14.5984 3.82507L15.3484 3.05007C15.7318 2.66674 16.2068 2.47924 16.7734 2.48757C17.3401 2.4959 17.8151 2.69174 18.1984 3.07507L21.4234 6.30007C21.8068 6.6834 21.9984 7.15424 21.9984 7.71257C21.9984 8.2709 21.8068 8.74174 21.4234 9.12507L20.6484 9.87507ZM8.64844 21.9001C8.2651 22.2834 7.79427 22.4751 7.23594 22.4751C6.6776 22.4751 6.20677 22.2834 5.82344 21.9001L2.59844 18.6751C2.2151 18.2917 2.02344 17.8209 2.02344 17.2626C2.02344 16.7042 2.2151 16.2334 2.59844 15.8501L3.34844 15.1001L4.77344 16.5251L3.99844 17.2751L7.22344 20.5001L7.97344 19.7251L9.39844 21.1501L8.64844 21.9001ZM18.5734 13.5001L19.9984 12.0751L12.4234 4.50007L10.9984 5.92507L18.5734 13.5001ZM11.5734 20.5001L12.9984 19.0501L5.44844 11.5001L3.99844 12.9251L11.5734 20.5001ZM11.4234 14.6501L14.1734 11.9251L12.5734 10.3251L9.84844 13.0751L11.4234 14.6501ZM12.9984 21.9001C12.6151 22.2834 12.1401 22.4751 11.5734 22.4751C11.0068 22.4751 10.5318 22.2834 10.1484 21.9001L2.59844 14.3501C2.2151 13.9667 2.02344 13.4917 2.02344 12.9251C2.02344 12.3584 2.2151 11.8834 2.59844 11.5001L4.02344 10.0751C4.40677 9.69174 4.8776 9.50007 5.43594 9.50007C5.99427 9.50007 6.4651 9.69174 6.84844 10.0751L8.42344 11.6501L11.1734 8.90007L9.59844 7.35007C9.2151 6.96674 9.02344 6.49174 9.02344 5.92507C9.02344 5.3584 9.2151 4.8834 9.59844 4.50007L11.0234 3.07507C11.4068 2.69174 11.8776 2.50007 12.4359 2.50007C12.9943 2.50007 13.4651 2.69174 13.8484 3.07507L21.4234 10.6501C21.8068 11.0334 21.9984 11.5042 21.9984 12.0626C21.9984 12.6209 21.8068 13.0917 21.4234 13.4751L19.9984 14.9001C19.6151 15.2834 19.1401 15.4751 18.5734 15.4751C18.0068 15.4751 17.5318 15.2834 17.1484 14.9001L15.5984 13.3251L12.8484 16.0751L14.4234 17.6501C14.8068 18.0334 14.9984 18.5042 14.9984 19.0626C14.9984 19.6209 14.8068 20.0917 14.4234 20.4751L12.9984 21.9001Z" fill="#E71212" fill-opacity="0.5"/>
</g>
</svg>
