<svg width="80" height="80" viewBox="0 0 80 80" fill="none" xmlns="http://www.w3.org/2000/svg">
<mask id="mask0_174_1883" style="mask-type:alpha" maskUnits="userSpaceOnUse" x="0" y="0" width="80" height="80">
<rect width="80" height="80" fill="#D9D9D9"/>
</mask>
<g mask="url(#mask0_174_1883)">
<path d="M29.9987 66.6666C28.9431 66.6666 27.9987 66.361 27.1654 65.7499C26.332 65.1388 25.7209 64.361 25.332 63.4166L17.6654 43.3333H3.33203V36.6666H22.332L29.9987 56.9999L45.332 16.5833C45.7209 15.6388 46.332 14.861 47.1654 14.2499C47.9987 13.6388 48.9431 13.3333 49.9987 13.3333C51.0543 13.3333 51.9987 13.6388 52.832 14.2499C53.6654 14.861 54.2765 15.6388 54.6654 16.5833L62.332 36.6666H76.6654V43.3333H57.6654L49.9987 22.9999L34.6654 63.4166C34.2765 64.361 33.6654 65.1388 32.832 65.7499C31.9987 66.361 31.0543 66.6666 29.9987 66.6666Z" fill="#E71212"/>
</g>
</svg>
